<svg xmlns="http://www.w3.org/2000/svg" id="z_logo" viewBox="0 0 64.312 40.348">
  <g id="Group_3" data-name="Group 3" transform="translate(-90.29 -40.162)">
    <g data-name="Group 2">
      <path data-name="Path 1" d="M204.213,115.77l-13.348-13.348,3.354-3.356L190.971,95.8l-6.619,6.621,19.861,19.861,10.314-10.332-3.247-3.249-7.067,7.067" transform="translate(-83.604 -41.774)" fill="#fdb811" fill-rule="evenodd"></path>
      <path data-name="Path 2" d="M234.607,71.992,221.365,58.75,211.051,69.082l3.265,3.249,7.049-7.067,7.085,7.067,2.908,2.908,3.356,3.372-3.356,3.356,3.249,3.265,6.621-6.621-6.621-6.619" transform="translate(-100.774 -17.947)" fill="#fdb811" fill-rule="evenodd"></path>
      <path data-name="Path 3" d="M256.958,73l-5.23,5.228,2.91,2.91,2.32-2.3,8.923,8.923-8.923,8.923-2.32-2.3-3.249-3.265-3.354-3.354L251.39,84.4l-2.908-2.926L242.2,87.759l6.282,6.281,3.247,3.249,5.23,5.228,14.757-14.757L256.958,73" transform="translate(-120.805 -27.111)" fill="#003a78" fill-rule="evenodd"></path>
      <path data-name="Path 4" d="M175.038,78.228,169.808,73,155.051,87.759l14.757,14.757,5.23-5.228-2.926-2.91-2.3,2.3-8.923-8.923,8.923-8.923,2.3,2.3,3.265,3.265,3.354,3.356-3.354,3.354,2.908,2.926,6.282-6.281-6.282-6.282-3.247-3.249" transform="translate(-64.761 -27.111)" fill="#003a78" fill-rule="evenodd"></path>
      <g data-name="Group 1" transform="translate(148.908 40.162)">
        <path data-name="Path 5" d="M326.668,58.341A2.847,2.847,0,1,1,323.83,55.5,2.822,2.822,0,0,1,326.668,58.341Zm-4.984,0a2.178,2.178,0,0,0,2.163,2.273,2.154,2.154,0,0,0,2.113-2.256,2.142,2.142,0,1,0-4.275-.017Zm1.706,1.492h-.642V56.988a5.433,5.433,0,0,1,1.064-.087,1.692,1.692,0,0,1,.963.208.8.8,0,0,1,.27.624.723.723,0,0,1-.574.659v.034a.837.837,0,0,1,.507.694,2.219,2.219,0,0,0,.2.711h-.693a2.5,2.5,0,0,1-.22-.694c-.051-.312-.219-.451-.574-.451h-.3Zm.017-1.614h.3c.355,0,.642-.121.642-.417,0-.26-.185-.434-.591-.434a1.494,1.494,0,0,0-.355.034Z" transform="translate(-320.974 -55.495)" fill="#003a78"></path>
      </g>
    </g>
  </g>
</svg>