<svg xmlns="http://www.w3.org/2000/svg" xmlns:xlink="http://www.w3.org/1999/xlink" width="478.59" height="567.63" viewBox="0 0 478.59 567.63"><defs><clipPath id="a"><path d="M18.285-98.58V0h478.59V-104.94H184.44L488.925-469.05v-98.58H42.135v104.94H322.77Z" transform="translate(12133 11279)" fill="#003a78"/></clipPath></defs><g transform="translate(-12151.285 -10711.37)" clip-path="url(#a)"><g transform="translate(11998.652 10552.785)"><line x1="193.846" y2="919.677" transform="translate(0 0)" fill="none" stroke="#245991" stroke-miterlimit="10" stroke-width="1"/><line x1="193.846" y2="919.677" transform="translate(7.295 0)" fill="none" stroke="#245991" stroke-miterlimit="10" stroke-width="1"/><line x1="193.846" y2="919.677" transform="translate(14.59 0)" fill="none" stroke="#245991" stroke-miterlimit="10" stroke-width="1"/><line x1="193.846" y2="919.677" transform="translate(21.885 0)" fill="none" stroke="#245991" stroke-miterlimit="10" stroke-width="1"/><line x1="193.846" y2="919.677" transform="translate(29.181 0)" fill="none" stroke="#245991" stroke-miterlimit="10" stroke-width="1"/><line x1="193.846" y2="919.677" transform="translate(36.476 0)" fill="none" stroke="#245991" stroke-miterlimit="10" stroke-width="1"/><line x1="193.846" y2="919.677" transform="translate(43.771 0)" fill="none" stroke="#245991" stroke-miterlimit="10" stroke-width="1"/><line x1="193.846" y2="919.677" transform="translate(51.066 0)" fill="none" stroke="#245991" stroke-miterlimit="10" stroke-width="1"/><line x1="193.846" y2="919.677" transform="translate(58.361 0)" fill="none" stroke="#245991" stroke-miterlimit="10" stroke-width="1"/><line x1="193.846" y2="919.677" transform="translate(65.656 0)" fill="none" stroke="#245991" stroke-miterlimit="10" stroke-width="1"/><line x1="193.846" y2="919.677" transform="translate(72.951 0)" fill="none" stroke="#245991" stroke-miterlimit="10" stroke-width="1"/><line x1="193.846" y2="919.677" transform="translate(80.247 0)" fill="none" stroke="#245991" stroke-miterlimit="10" stroke-width="1"/><line x1="193.846" y2="919.677" transform="translate(87.542 0)" fill="none" stroke="#245991" stroke-miterlimit="10" stroke-width="1"/><line x1="193.846" y2="919.677" transform="translate(94.837 0)" fill="none" stroke="#245991" stroke-miterlimit="10" stroke-width="1"/><line x1="193.846" y2="919.677" transform="translate(102.132 0)" fill="none" stroke="#245991" stroke-miterlimit="10" stroke-width="1"/><line x1="193.846" y2="919.677" transform="translate(109.427 0)" fill="none" stroke="#245991" stroke-miterlimit="10" stroke-width="1"/><line x1="193.846" y2="919.677" transform="translate(116.722 0)" fill="none" stroke="#245991" stroke-miterlimit="10" stroke-width="1"/><line x1="193.846" y2="919.677" transform="translate(124.018 0)" fill="none" stroke="#245991" stroke-miterlimit="10" stroke-width="1"/><line x1="193.846" y2="919.677" transform="translate(131.313 0)" fill="none" stroke="#245991" stroke-miterlimit="10" stroke-width="1"/><line x1="193.846" y2="919.677" transform="translate(138.608 0)" fill="none" stroke="#245991" stroke-miterlimit="10" stroke-width="1"/><line x1="193.846" y2="919.677" transform="translate(145.903 0)" fill="none" stroke="#245991" stroke-miterlimit="10" stroke-width="1"/><line x1="193.846" y2="919.677" transform="translate(153.198 0)" fill="none" stroke="#245991" stroke-miterlimit="10" stroke-width="1"/><line x1="193.846" y2="919.677" transform="translate(160.493 0)" fill="none" stroke="#245991" stroke-miterlimit="10" stroke-width="1"/><line x1="193.846" y2="919.677" transform="translate(167.789 0)" fill="none" stroke="#245991" stroke-miterlimit="10" stroke-width="1"/><line x1="193.846" y2="919.677" transform="translate(175.084 0)" fill="none" stroke="#245991" stroke-miterlimit="10" stroke-width="1"/><line x1="193.846" y2="919.677" transform="translate(182.379 0)" fill="none" stroke="#245991" stroke-miterlimit="10" stroke-width="1"/><line x1="193.846" y2="919.677" transform="translate(189.674 0)" fill="none" stroke="#245991" stroke-miterlimit="10" stroke-width="1"/><line x1="193.846" y2="919.677" transform="translate(196.969 0)" fill="none" stroke="#245991" stroke-miterlimit="10" stroke-width="1"/><line x1="193.846" y2="919.677" transform="translate(204.264 0)" fill="none" stroke="#245991" stroke-miterlimit="10" stroke-width="1"/><line x1="193.846" y2="919.677" transform="translate(211.559 0)" fill="none" stroke="#245991" stroke-miterlimit="10" stroke-width="1"/><line x1="193.846" y2="919.677" transform="translate(218.855 0)" fill="none" stroke="#245991" stroke-miterlimit="10" stroke-width="1"/><line x1="193.846" y2="919.677" transform="translate(226.15 0)" fill="none" stroke="#245991" stroke-miterlimit="10" stroke-width="1"/><line x1="193.846" y2="919.677" transform="translate(233.445 0)" fill="none" stroke="#245991" stroke-miterlimit="10" stroke-width="1"/><line x1="193.846" y2="919.677" transform="translate(240.74 0)" fill="none" stroke="#245991" stroke-miterlimit="10" stroke-width="1"/><line x1="193.846" y2="919.677" transform="translate(248.035 0)" fill="none" stroke="#245991" stroke-miterlimit="10" stroke-width="1"/><line x1="193.846" y2="919.677" transform="translate(255.33 0)" fill="none" stroke="#245991" stroke-miterlimit="10" stroke-width="1"/><line x1="193.846" y2="919.677" transform="translate(262.626 0)" fill="none" stroke="#245991" stroke-miterlimit="10" stroke-width="1"/><line x1="193.846" y2="919.677" transform="translate(269.921 0)" fill="none" stroke="#245991" stroke-miterlimit="10" stroke-width="1"/><line x1="193.846" y2="919.677" transform="translate(277.216 0)" fill="none" stroke="#245991" stroke-miterlimit="10" stroke-width="1"/><line x1="193.846" y2="919.677" transform="translate(284.511 0)" fill="none" stroke="#245991" stroke-miterlimit="10" stroke-width="1"/><line x1="193.846" y2="919.677" transform="translate(291.806 0)" fill="none" stroke="#245991" stroke-miterlimit="10" stroke-width="1"/><line x1="193.846" y2="919.677" transform="translate(299.101 0)" fill="none" stroke="#245991" stroke-miterlimit="10" stroke-width="1"/><line x1="193.846" y2="919.677" transform="translate(306.396 0)" fill="none" stroke="#245991" stroke-miterlimit="10" stroke-width="1"/><line x1="193.846" y2="919.677" transform="translate(313.692 0)" fill="none" stroke="#245991" stroke-miterlimit="10" stroke-width="1"/><line x1="193.846" y2="919.677" transform="translate(320.987 0)" fill="none" stroke="#245991" stroke-miterlimit="10" stroke-width="1"/><line x1="193.846" y2="919.677" transform="translate(328.282 0)" fill="none" stroke="#245991" stroke-miterlimit="10" stroke-width="1"/><line x1="193.846" y2="919.677" transform="translate(335.577 0)" fill="none" stroke="#245991" stroke-miterlimit="10" stroke-width="1"/><line x1="193.846" y2="919.677" transform="translate(342.872 0)" fill="none" stroke="#245991" stroke-miterlimit="10" stroke-width="1"/><line x1="193.846" y2="919.677" transform="translate(350.167 0)" fill="none" stroke="#245991" stroke-miterlimit="10" stroke-width="1"/><line x1="193.846" y2="919.677" transform="translate(357.463 0)" fill="none" stroke="#245991" stroke-miterlimit="10" stroke-width="1"/><line x1="193.846" y2="919.677" transform="translate(364.758 0)" fill="none" stroke="#245991" stroke-miterlimit="10" stroke-width="1"/><line x1="193.846" y2="919.677" transform="translate(372.053 0)" fill="none" stroke="#245991" stroke-miterlimit="10" stroke-width="1"/><line x1="193.846" y2="919.677" transform="translate(379.348 0)" fill="none" stroke="#245991" stroke-miterlimit="10" stroke-width="1"/><line x1="193.846" y2="919.677" transform="translate(386.643 0)" fill="none" stroke="#245991" stroke-miterlimit="10" stroke-width="1"/><line x1="193.846" y2="919.677" transform="translate(393.938 0)" fill="none" stroke="#245991" stroke-miterlimit="10" stroke-width="1"/><line x1="193.846" y2="919.677" transform="translate(401.233 0)" fill="none" stroke="#245991" stroke-miterlimit="10" stroke-width="1"/><line x1="193.846" y2="919.677" transform="translate(408.529 0)" fill="none" stroke="#245991" stroke-miterlimit="10" stroke-width="1"/><line x1="193.846" y2="919.677" transform="translate(415.824 0)" fill="none" stroke="#245991" stroke-miterlimit="10" stroke-width="1"/><line x1="193.846" y2="919.677" transform="translate(423.119 0)" fill="none" stroke="#245991" stroke-miterlimit="10" stroke-width="1"/><line x1="193.846" y2="919.677" transform="translate(430.414 0)" fill="none" stroke="#245991" stroke-miterlimit="10" stroke-width="1"/><line x1="193.846" y2="919.677" transform="translate(437.709 0)" fill="none" stroke="#245991" stroke-miterlimit="10" stroke-width="1"/><line x1="193.846" y2="919.677" transform="translate(445.004 0)" fill="none" stroke="#245991" stroke-miterlimit="10" stroke-width="1"/><line x1="193.846" y2="919.677" transform="translate(452.3 0)" fill="none" stroke="#245991" stroke-miterlimit="10" stroke-width="1"/><line x1="193.846" y2="919.677" transform="translate(459.595 0)" fill="none" stroke="#245991" stroke-miterlimit="10" stroke-width="1"/><line x1="193.846" y2="919.677" transform="translate(466.89 0)" fill="none" stroke="#245991" stroke-miterlimit="10" stroke-width="1"/><line x1="193.846" y2="919.677" transform="translate(474.185 0)" fill="none" stroke="#245991" stroke-miterlimit="10" stroke-width="1"/><line x1="193.846" y2="919.677" transform="translate(481.48 0)" fill="none" stroke="#245991" stroke-miterlimit="10" stroke-width="1"/><line x1="193.846" y2="919.677" transform="translate(488.775 0)" fill="none" stroke="#245991" stroke-miterlimit="10" stroke-width="1"/><line x1="193.846" y2="919.677" transform="translate(496.071 0)" fill="none" stroke="#245991" stroke-miterlimit="10" stroke-width="1"/><line x1="193.846" y2="919.677" transform="translate(503.366 0)" fill="none" stroke="#245991" stroke-miterlimit="10" stroke-width="1"/><line x1="193.846" y2="919.677" transform="translate(510.661 0)" fill="none" stroke="#245991" stroke-miterlimit="10" stroke-width="1"/><line x1="193.846" y2="919.677" transform="translate(517.956 0)" fill="none" stroke="#245991" stroke-miterlimit="10" stroke-width="1"/><line x1="193.846" y2="919.677" transform="translate(525.251 0)" fill="none" stroke="#245991" stroke-miterlimit="10" stroke-width="1"/><line x1="193.846" y2="919.677" transform="translate(532.546 0)" fill="none" stroke="#245991" stroke-miterlimit="10" stroke-width="1"/><line x1="193.846" y2="919.677" transform="translate(539.841 0)" fill="none" stroke="#245991" stroke-miterlimit="10" stroke-width="1"/><line x1="193.846" y2="919.677" transform="translate(547.137 0)" fill="none" stroke="#245991" stroke-miterlimit="10" stroke-width="1"/><line x1="193.846" y2="919.677" transform="translate(554.432 0)" fill="none" stroke="#245991" stroke-miterlimit="10" stroke-width="1"/><line x1="193.846" y2="919.677" transform="translate(561.727 0)" fill="none" stroke="#245991" stroke-miterlimit="10" stroke-width="1"/><line x1="193.846" y2="919.677" transform="translate(569.022 0)" fill="none" stroke="#245991" stroke-miterlimit="10" stroke-width="1"/><line x1="193.846" y2="919.677" transform="translate(576.317 0)" fill="none" stroke="#245991" stroke-miterlimit="10" stroke-width="1"/><line x1="193.846" y2="919.677" transform="translate(583.612 0)" fill="none" stroke="#245991" stroke-miterlimit="10" stroke-width="1"/><line x1="193.846" y2="919.677" transform="translate(590.908 0)" fill="none" stroke="#245991" stroke-miterlimit="10" stroke-width="1"/></g></g></svg>